<svg width="40" height="41" viewBox="0 0 40 41" fill="none" xmlns="http://www.w3.org/2000/svg">
<path d="M33.3333 37.1668H10.8333C9.28624 37.1668 7.80251 36.5522 6.70854 35.4583C5.61458 34.3643 5 32.8806 5 31.3335V8.8335C5 7.50741 5.52678 6.23564 6.46447 5.29796C7.40215 4.36028 8.67392 3.8335 10 3.8335H33.3333C33.7754 3.8335 34.1993 4.00909 34.5118 4.32165C34.8244 4.63421 35 5.05814 35 5.50016V35.5002C35 35.9422 34.8244 36.3661 34.5118 36.6787C34.1993 36.9912 33.7754 37.1668 33.3333 37.1668ZM31.6667 33.8335V28.8335H10.8333C10.1703 28.8335 9.53441 29.0969 9.06557 29.5657C8.59672 30.0346 8.33333 30.6705 8.33333 31.3335C8.33333 31.9965 8.59672 32.6324 9.06557 33.1013C9.53441 33.5701 10.1703 33.8335 10.8333 33.8335H31.6667Z" fill="black"/>
</svg>
