<svg width="45" height="45" viewBox="0 0 45 45" fill="none" xmlns="http://www.w3.org/2000/svg">
<path d="M24.375 37.5C24.8529 37.5005 25.3126 37.6835 25.6601 38.0116C26.0076 38.3397 26.2167 38.788 26.2447 39.2651C26.2727 39.7422 26.1175 40.212 25.8108 40.5784C25.504 40.9449 25.0689 41.1804 24.5944 41.2369L24.375 41.25H20.625C20.1471 41.2495 19.6874 41.0665 19.3399 40.7384C18.9924 40.4103 18.7833 39.962 18.7553 39.4849C18.7273 39.0078 18.8825 38.538 19.1892 38.1716C19.496 37.8051 19.9311 37.5696 20.4056 37.5131L20.625 37.5H24.375ZM22.5 3.75C30.7687 3.75 37.5 10.3931 37.5 18.6244C37.5 24.2606 34.6462 28.3669 32.2875 30.8006L31.755 31.3312L31.2488 31.8037L30.7762 32.2162L30.1575 32.7225L29.5425 33.18C29.0906 33.4987 28.7869 33.9656 28.5113 34.4513L28.1269 35.1338C27.6806 35.9025 27.1575 36.5625 26.0494 36.5625H18.9506C17.8444 36.5625 17.3194 35.9044 16.8731 35.1338L16.6519 34.7438C16.3294 34.1588 15.9994 33.5625 15.4575 33.18L15.0225 32.8594L14.6494 32.5688L14.2238 32.2162L13.7513 31.8037L13.245 31.3312L12.7106 30.8006C10.3537 28.3669 7.5 24.2606 7.5 18.6244C7.5 10.3931 14.2313 3.75 22.5 3.75ZM25.7006 11.7994C25.3778 11.4765 24.9482 11.2826 24.4925 11.254C24.0369 11.2253 23.5864 11.3639 23.2256 11.6438L23.0494 11.7994L19.3125 15.5363C18.9865 15.8623 18.7906 16.296 18.7616 16.7562C18.7326 17.2163 18.8725 17.6713 19.155 18.0356L19.3125 18.2137L21.7238 20.625L19.2994 23.0494C18.9631 23.3868 18.7679 23.8396 18.7533 24.3157C18.7388 24.7919 18.906 25.2557 19.2211 25.613C19.5362 25.9703 19.9754 26.1943 20.4496 26.2395C20.9239 26.2847 21.3975 26.1476 21.7744 25.8563L21.9506 25.7006L25.6875 21.9637C26.0135 21.6377 26.2094 21.204 26.2384 20.7438C26.2674 20.2837 26.1275 19.8287 25.845 19.4644L25.6875 19.2863L23.2762 16.875L25.7006 14.4506C26.0521 14.099 26.2496 13.6222 26.2496 13.125C26.2496 12.6278 26.0521 12.151 25.7006 11.7994Z" fill="black"/>
</svg>
