<svg width="50" height="50" viewBox="0 0 50 50" fill="none" xmlns="http://www.w3.org/2000/svg">
<path fill-rule="evenodd" clip-rule="evenodd" d="M11.2224 8.08896C12.3845 6.90996 13.9366 6.25 16.0156 6.25C17.816 6.25 19.3295 6.95693 20.3722 8.16475C21.3923 9.34639 21.875 10.9021 21.875 12.5V15.8993C22.7002 15.7447 23.7448 15.625 25 15.625C26.2552 15.625 27.2998 15.7447 28.125 15.8993V12.5C28.125 10.9021 28.6077 9.34639 29.6278 8.16475C30.6705 6.95693 32.184 6.25 33.9844 6.25C36.0634 6.25 37.6155 6.90996 38.7776 8.08896C39.8589 9.18594 40.4911 10.6315 41.0034 11.9244L41.0655 12.0877L47.7264 29.8528C47.7264 29.8528 47.9793 30.5664 48.011 30.6724C48.2947 31.6202 48.4384 32.6044 48.4375 33.5938C48.4375 39.2029 43.8904 43.75 38.2812 43.75C32.6721 43.75 28.125 39.2029 28.125 33.5938V27.6894L28.1211 27.6884C27.4501 27.522 26.4045 27.3438 25 27.3438C23.5955 27.3438 22.5499 27.522 21.8789 27.6884L21.875 27.6894V33.5938C21.875 39.2029 17.3279 43.75 11.7188 43.75C6.10957 43.75 1.5625 39.2029 1.5625 33.5938C1.5625 32.5782 1.71152 31.5976 1.98896 30.6723C2.00374 30.6046 2.02334 30.5372 2.04775 30.4703C2.1186 30.2628 2.19394 30.0569 2.27373 29.8527L8.99658 11.9244C9.50889 10.6315 10.1412 9.18594 11.2224 8.08896ZM31.25 33.5845C31.255 29.7055 34.4011 26.5625 38.2812 26.5625C41.2473 26.5625 43.7844 28.399 44.8174 30.9969L44.95 31.3592C45.1909 32.0795 45.3133 32.8342 45.3125 33.5938C45.3125 37.477 42.1645 40.625 38.2812 40.625C34.3993 40.625 31.2521 37.4791 31.25 33.5977V33.5938M11.7188 26.5625C8.75283 26.5625 6.21582 28.3989 5.18262 30.9967L5.05 31.3594C4.80912 32.0797 4.68669 32.8343 4.6875 33.5938C4.6875 37.477 7.83555 40.625 11.7188 40.625C15.602 40.625 18.75 37.477 18.75 33.5938C18.75 29.7105 15.602 26.5625 11.7188 26.5625Z" fill="black"/>
</svg>
